<svg xmlns="http://www.w3.org/2000/svg" version="1.1" viewBox="-5.0 -10.0 110.0 135.0">
 <g>
  <path d="m85 95v-21.668h-70v21.668c0 0.44141 0.17578 0.86719 0.48828 1.1797s0.73828 0.48828 1.1797 0.48828h66.664c0.44141 0 0.86719-0.17578 1.1797-0.48828s0.48828-0.73828 0.48828-1.1797zm-47.5-5c1.1875 0 2.2109-0.83594 2.4492-2 0.18359-0.90234 1.0664-1.4844 1.9688-1.3008 0.90234 0.18359 1.4844 1.0664 1.3008 1.9688-0.59375 2.9414-3.3203 4.9531-6.3047 4.6484-2.9844-0.30078-5.2539-2.8164-5.2461-5.8164v-5c-0.007813-3 2.2617-5.5156 5.2461-5.8164 2.9844-0.30469 5.7109 1.707 6.3047 4.6484 0.18359 0.90234-0.39844 1.7852-1.3008 1.9688-0.90234 0.18359-1.7852-0.39844-1.9688-1.3008-0.25391-1.2578-1.4219-2.1172-2.6992-1.9883-1.2773 0.12891-2.25 1.2031-2.25 2.4883v5c0 0.66406 0.26172 1.3008 0.73047 1.7695s1.1055 0.73047 1.7695 0.73047zm17.5-3.332h-1.668v1.668-0.003907c0 0.92188-0.74609 1.668-1.6641 1.668-0.92188 0-1.668-0.74609-1.668-1.668v-1.6641h-1.668c-0.91797 0-1.6641-0.74609-1.6641-1.668s0.74609-1.668 1.6641-1.668h1.668v-1.6641c0-0.92188 0.74609-1.668 1.668-1.668 0.91797 0 1.6641 0.74609 1.6641 1.668v1.668h1.668v-0.003907c0.92188 0 1.668 0.74609 1.668 1.668s-0.74609 1.668-1.668 1.668zm13.332 0h-1.6641v1.668-0.003907c0 0.92188-0.74609 1.668-1.668 1.668s-1.668-0.74609-1.668-1.668v-1.6641h-1.6641c-0.92188 0-1.668-0.74609-1.668-1.668s0.74609-1.668 1.668-1.668h1.668l-0.003907-1.6641c0-0.92188 0.74609-1.668 1.668-1.668s1.668 0.74609 1.668 1.668v1.668h1.668l-0.003907-0.003907c0.92188 0 1.668 0.74609 1.668 1.668s-0.74609 1.668-1.668 1.668z"/>
  <path d="m73.332 18.332h9.3086l-12.641-12.641v9.3086c0 0.88281 0.35156 1.7305 0.97656 2.3555s1.4727 0.97656 2.3555 0.97656z"/>
  <path d="m16.668 3.332c-0.92188 0-1.668 0.74609-1.668 1.668v65h70v-46.668c0-0.44141-0.17578-0.86328-0.48828-1.1758s-0.73828-0.48828-1.1797-0.48828h-10c-3.6797 0-6.6641-2.9844-6.6641-6.668v-10c0-0.44141-0.17578-0.86719-0.48828-1.1797s-0.73828-0.48828-1.1797-0.48828zm21.039 53.336c3.3867 0.011719 6.3789-2.1953 7.3672-5.4297 0.12109-0.4375 0.41016-0.80469 0.80859-1.0195 0.39453-0.21875 0.85938-0.26562 1.2891-0.13281 0.43359 0.13281 0.79297 0.4375 0.99609 0.83984 0.20312 0.39844 0.23828 0.86719 0.089843 1.293-1.6133 5.2188-6.7969 8.4766-12.199 7.6602s-9.3945-5.457-9.3906-10.922v-11.25c0-5.457 3.9922-10.098 9.3906-10.914 5.3984-0.8125 10.582 2.4375 12.199 7.6523 0.14453 0.42578 0.10938 0.89063-0.09375 1.293-0.20703 0.39844-0.5625 0.69922-0.99219 0.83203-0.42969 0.13281-0.89453 0.085938-1.2891-0.12891-0.39453-0.21484-0.6875-0.57812-0.80859-1.0117-1.125-3.6406-4.7461-5.9141-8.5156-5.3438-3.7695 0.57031-6.5586 3.8086-6.5586 7.6211v11.25c0.003906 4.2578 3.4531 7.7031 7.707 7.7109zm17.293-0.058594c-0.4375 0.011719-0.85938-0.14844-1.1719-0.45312-0.31641-0.30469-0.49219-0.71875-0.49609-1.1562v-0.11328c0-0.92188 0.74609-1.668 1.668-1.668s1.668 0.74609 1.668 1.668c0.003906 0.93359-0.73828 1.6953-1.668 1.7227zm0-8.2188c-0.4375 0.011719-0.85938-0.15234-1.1719-0.45312-0.31641-0.30469-0.49219-0.72266-0.49609-1.1562v-0.11328c0-0.92188 0.74609-1.668 1.668-1.668s1.668 0.74609 1.668 1.668c0.003906 0.92969-0.73828 1.6953-1.668 1.7227zm15.098-15.617c0.13672-0.43359 0.44141-0.79297 0.84766-0.99609s0.87891-0.23047 1.3047-0.078125c0.42578 0.15234 0.77344 0.47266 0.96094 0.88672 0.18359 0.41406 0.19531 0.88672 0.023437 1.3086l-8.332 23.332c-0.23828 0.66406-0.86328 1.1055-1.5703 1.1055-0.53906 0-1.0469-0.26172-1.3594-0.70703-0.3125-0.44141-0.39062-1.0078-0.20703-1.5195z"/>
 </g>
<text x="0.0" y="117.5" font-size="5.0" font-weight="bold" font-family="Arbeit Regular, Helvetica, Arial-Unicode, Arial, Sans-serif" fill="#000000">Created by Juicy Fish</text><text x="0.0" y="122.5" font-size="5.0" font-weight="bold" font-family="Arbeit Regular, Helvetica, Arial-Unicode, Arial, Sans-serif" fill="#000000">from Noun Project</text></svg>