<svg xmlns="http://www.w3.org/2000/svg" xmlns:xlink="http://www.w3.org/1999/xlink" version="1.1" x="0px" y="0px" viewBox="0 -9 168.292 263.75" enable-background="new 0 -9 168.292 211" xml:space="preserve"><rect x="36.189" y="161.643" width="95.915" height="3"/><rect x="36.189" y="145.234" width="95.915" height="3"/><path d="M159.444,26.007c0-0.009-0.003-0.018-0.003-0.027c-0.004-0.018-0.007-0.036-0.011-0.054  c-0.018-0.358-0.151-0.712-0.425-0.986l-27.5-27.5c-0.478-0.478-1.188-0.545-1.755-0.243l-119.426,0c-0.829,0-1.5,0.671-1.5,1.5  v195.105c0,0.828,0.671,1.5,1.5,1.5h147.644c0.828,0,1.5-0.672,1.5-1.5V26.252C159.468,26.168,159.457,26.087,159.444,26.007z   M131.958,2.135l22.617,22.617h-22.617V2.135z M156.468,192.303H11.824V0.197l117.134,0v26.056c0,0.829,0.672,1.5,1.5,1.5h26.01  V192.303z"/><g><path d="M46.244,87.614l-2.722,9.81h-8.959l11.681-38.217h11.34l11.852,38.217h-9.3l-2.948-9.81H46.244z M55.939,81.15   l-2.381-8.108c-0.681-2.268-1.361-5.103-1.928-7.371h-0.113c-0.567,2.268-1.135,5.16-1.758,7.371l-2.269,8.108H55.939z"/><path d="M75.386,88.521c2.325,1.191,5.897,2.382,9.583,2.382c3.969,0,6.067-1.645,6.067-4.14c0-2.381-1.814-3.742-6.407-5.386   c-6.351-2.211-10.49-5.727-10.49-11.284c0-6.521,5.443-11.511,14.459-11.511c4.31,0,7.484,0.907,9.753,1.928l-1.928,6.974   c-1.531-0.737-4.253-1.814-7.995-1.814s-5.557,1.701-5.557,3.686c0,2.438,2.154,3.516,7.087,5.387   c6.748,2.495,9.923,6.01,9.923,11.397c0,6.407-4.933,11.851-15.423,11.851c-4.365,0-8.675-1.134-10.83-2.325L75.386,88.521z"/><path d="M106.287,59.717c2.665-0.454,6.407-0.794,11.681-0.794c5.33,0,9.129,1.021,11.681,3.062   c2.438,1.928,4.082,5.103,4.082,8.845c0,3.743-1.247,6.918-3.516,9.072c-2.948,2.779-7.314,4.026-12.417,4.026   c-1.134,0-2.155-0.057-2.948-0.17v13.665h-8.562V59.717z M114.849,77.067c0.736,0.17,1.644,0.227,2.892,0.227   c4.593,0,7.428-2.325,7.428-6.237c0-3.516-2.438-5.613-6.747-5.613c-1.758,0-2.949,0.17-3.572,0.34V77.067z"/></g><text x="0" y="217" fill="#000000" font-size="5px" font-weight="bold" font-family="'Helvetica Neue', Helvetica, Arial-Unicode, Arial, Sans-serif">Created by corpus delicti</text><text x="0" y="222" fill="#000000" font-size="5px" font-weight="bold" font-family="'Helvetica Neue', Helvetica, Arial-Unicode, Arial, Sans-serif">from the Noun Project</text></svg>